<svg width="1920" height="1080" viewBox="0 0 1920 1080" fill="none" xmlns="http://www.w3.org/2000/svg">
  <defs>
    <linearGradient id="bg" x1="0" y1="0" x2="1920" y2="1080" gradientUnits="userSpaceOnUse">
      <stop stop-color="#081423"/>
      <stop offset="0.55" stop-color="#0E2236"/>
      <stop offset="1" stop-color="#163A48"/>
    </linearGradient>
    <linearGradient id="card" x1="0" y1="0" x2="1" y2="1">
      <stop stop-color="#12395C" stop-opacity="0.92"/>
      <stop offset="1" stop-color="#0A2033" stop-opacity="0.96"/>
    </linearGradient>
    <linearGradient id="accent" x1="0" y1="0" x2="1" y2="1">
      <stop stop-color="#28D6A2"/>
      <stop offset="1" stop-color="#00A5FF"/>
    </linearGradient>
    <filter id="shadow" x="-20%" y="-20%" width="140%" height="140%">
      <feDropShadow dx="0" dy="10" stdDeviation="18" flood-color="#02111E" flood-opacity="0.45"/>
    </filter>
  </defs>

  <rect width="1920" height="1080" fill="url(#bg)"/>
  <circle cx="1620" cy="180" r="280" fill="#1D6F8A" fill-opacity="0.16"/>
  <circle cx="240" cy="980" r="300" fill="#2AC79A" fill-opacity="0.10"/>

  <rect x="48" y="36" width="1824" height="86" rx="24" fill="#0C2C45" fill-opacity="0.82" stroke="#4CC8FF" stroke-opacity="0.25"/>
  <image href="hota-logo.png" x="74" y="42" width="150" height="94" preserveAspectRatio="xMidYMid meet"/>
  <text x="258" y="86" fill="#EAF7FF" font-size="38" font-family="Microsoft YaHei, Segoe UI, sans-serif" font-weight="700">和泰智能工厂展示大屏</text>
  <text x="258" y="114" fill="#94D6F3" font-size="20" font-family="Microsoft YaHei, Segoe UI, sans-serif">欢迎参观 · 工厂运行总览</text>
  <text x="1760" y="88" text-anchor="end" fill="#EAF7FF" font-size="24" font-family="Microsoft YaHei, Segoe UI, sans-serif">2026-04-08</text>
  <text x="1760" y="114" text-anchor="end" fill="#87D4D0" font-size="18" font-family="Microsoft YaHei, Segoe UI, sans-serif">客户参观模式</text>

  <rect x="48" y="150" width="510" height="260" rx="30" fill="url(#card)" filter="url(#shadow)" stroke="#54DAE6" stroke-opacity="0.22"/>
  <text x="84" y="198" fill="#D8F6FF" font-size="28" font-family="Microsoft YaHei, Segoe UI, sans-serif" font-weight="700">设备运行概览</text>
  <text x="84" y="236" fill="#8EC8DC" font-size="18" font-family="Microsoft YaHei, Segoe UI, sans-serif">实时状态采集自 OPCUA / Modbus TCP</text>
  <circle cx="390" cy="286" r="78" stroke="#2A5F7A" stroke-width="28"/>
  <path d="M390 208 A78 78 0 1 1 322 326" stroke="#25D49C" stroke-width="28" stroke-linecap="round"/>
  <path d="M322 326 A78 78 0 0 1 346 216" stroke="#FF8F4C" stroke-width="28" stroke-linecap="round"/>
  <text x="390" y="294" text-anchor="middle" fill="#F2FBFF" font-size="30" font-family="Microsoft YaHei, Segoe UI, sans-serif" font-weight="700">128</text>
  <text x="84" y="330" fill="#B9EBFF" font-size="22" font-family="Microsoft YaHei, Segoe UI, sans-serif">运行设备</text>
  <text x="84" y="366" fill="#F4FCFF" font-size="44" font-family="Microsoft YaHei, Segoe UI, sans-serif" font-weight="700">96</text>
  <text x="230" y="330" fill="#FFD0B4" font-size="22" font-family="Microsoft YaHei, Segoe UI, sans-serif">异常设备</text>
  <text x="230" y="366" fill="#F4FCFF" font-size="44" font-family="Microsoft YaHei, Segoe UI, sans-serif" font-weight="700">32</text>
  <text x="84" y="396" fill="#7DB5C7" font-size="18" font-family="Microsoft YaHei, Segoe UI, sans-serif">总数来自设备台账，运行外状态统一计为异常</text>

  <rect x="582" y="150" width="510" height="260" rx="30" fill="url(#card)" filter="url(#shadow)" stroke="#54DAE6" stroke-opacity="0.22"/>
  <text x="618" y="198" fill="#D8F6FF" font-size="28" font-family="Microsoft YaHei, Segoe UI, sans-serif" font-weight="700">报修概览</text>
  <text x="618" y="236" fill="#8EC8DC" font-size="18" font-family="Microsoft YaHei, Segoe UI, sans-serif">响应效率、处理中工单与重点故障设备</text>
  <rect x="618" y="270" width="130" height="94" rx="22" fill="#0F3048" stroke="#2BE39A" stroke-opacity="0.40"/>
  <rect x="772" y="270" width="130" height="94" rx="22" fill="#0F3048" stroke="#4BC9FF" stroke-opacity="0.40"/>
  <rect x="926" y="270" width="130" height="94" rx="22" fill="#0F3048" stroke="#FFAA64" stroke-opacity="0.40"/>
  <text x="683" y="302" text-anchor="middle" fill="#7EEED2" font-size="18" font-family="Microsoft YaHei, Segoe UI, sans-serif">今日报修</text>
  <text x="683" y="343" text-anchor="middle" fill="#F5FDFF" font-size="34" font-family="Microsoft YaHei, Segoe UI, sans-serif" font-weight="700">14</text>
  <text x="837" y="302" text-anchor="middle" fill="#96DEFF" font-size="18" font-family="Microsoft YaHei, Segoe UI, sans-serif">处理中</text>
  <text x="837" y="343" text-anchor="middle" fill="#F5FDFF" font-size="34" font-family="Microsoft YaHei, Segoe UI, sans-serif" font-weight="700">5</text>
  <text x="991" y="302" text-anchor="middle" fill="#FFD5B1" font-size="18" font-family="Microsoft YaHei, Segoe UI, sans-serif">平均响应</text>
  <text x="991" y="343" text-anchor="middle" fill="#F5FDFF" font-size="34" font-family="Microsoft YaHei, Segoe UI, sans-serif" font-weight="700">18分</text>
  <rect x="618" y="382" width="438" height="10" rx="5" fill="#20455B"/>
  <rect x="618" y="382" width="292" height="10" rx="5" fill="url(#accent)"/>
  <text x="618" y="406" fill="#7DB5C7" font-size="18" font-family="Microsoft YaHei, Segoe UI, sans-serif">重点故障：热处理二区 2 号线传感器报警</text>

  <rect x="1116" y="150" width="756" height="260" rx="30" fill="url(#card)" filter="url(#shadow)" stroke="#54DAE6" stroke-opacity="0.22"/>
  <text x="1152" y="198" fill="#D8F6FF" font-size="28" font-family="Microsoft YaHei, Segoe UI, sans-serif" font-weight="700">产量执行概览</text>
  <text x="1152" y="236" fill="#8EC8DC" font-size="18" font-family="Microsoft YaHei, Segoe UI, sans-serif">按产线展示订单进度、完成率与交付预测</text>
  <rect x="1152" y="270" width="684" height="44" rx="22" fill="#123954"/>
  <rect x="1152" y="270" width="492" height="44" rx="22" fill="url(#accent)"/>
  <text x="1176" y="298" fill="#F7FDFF" font-size="20" font-family="Microsoft YaHei, Segoe UI, sans-serif">A 线 / 订单 HOTA-240801 / 完成 72%</text>
  <text x="1776" y="298" text-anchor="end" fill="#D7FFF5" font-size="20" font-family="Microsoft YaHei, Segoe UI, sans-serif">正常</text>
  <rect x="1152" y="328" width="684" height="44" rx="22" fill="#123954"/>
  <rect x="1152" y="328" width="398" height="44" rx="22" fill="#4ABEFF"/>
  <text x="1176" y="356" fill="#F7FDFF" font-size="20" font-family="Microsoft YaHei, Segoe UI, sans-serif">B 线 / 订单 HOTA-240805 / 完成 58%</text>
  <text x="1776" y="356" text-anchor="end" fill="#FFE4C8" font-size="20" font-family="Microsoft YaHei, Segoe UI, sans-serif">风险</text>
  <rect x="1152" y="386" width="684" height="44" rx="22" fill="#123954"/>
  <rect x="1152" y="386" width="606" height="44" rx="22" fill="#26D89A"/>
  <text x="1176" y="414" fill="#F7FDFF" font-size="20" font-family="Microsoft YaHei, Segoe UI, sans-serif">C 线 / 订单 HOTA-240809 / 完成 89%</text>
  <text x="1776" y="414" text-anchor="end" fill="#D7FFF5" font-size="20" font-family="Microsoft YaHei, Segoe UI, sans-serif">提前</text>

  <rect x="48" y="442" width="1200" height="590" rx="32" fill="url(#card)" filter="url(#shadow)" stroke="#54DAE6" stroke-opacity="0.22"/>
  <text x="84" y="490" fill="#D8F6FF" font-size="30" font-family="Microsoft YaHei, Segoe UI, sans-serif" font-weight="700">近 8 小时产量趋势</text>
  <text x="84" y="526" fill="#8EC8DC" font-size="18" font-family="Microsoft YaHei, Segoe UI, sans-serif">当前订单执行节奏与产线表现快照</text>
  <line x1="110" y1="930" x2="1180" y2="930" stroke="#3A6680" stroke-width="2"/>
  <line x1="110" y1="610" x2="110" y2="930" stroke="#3A6680" stroke-width="2"/>
  <rect x="170" y="760" width="70" height="170" rx="16" fill="#1EBBFF"/>
  <rect x="295" y="700" width="70" height="230" rx="16" fill="#21D39D"/>
  <rect x="420" y="655" width="70" height="275" rx="16" fill="#58BFFF"/>
  <rect x="545" y="590" width="70" height="340" rx="16" fill="#21D39D"/>
  <rect x="670" y="640" width="70" height="290" rx="16" fill="#58BFFF"/>
  <rect x="795" y="606" width="70" height="324" rx="16" fill="#21D39D"/>
  <rect x="920" y="688" width="70" height="242" rx="16" fill="#58BFFF"/>
  <rect x="1045" y="630" width="70" height="300" rx="16" fill="#21D39D"/>
  <text x="205" y="962" text-anchor="middle" fill="#8CC9DD" font-size="18" font-family="Microsoft YaHei, Segoe UI, sans-serif">08时</text>
  <text x="330" y="962" text-anchor="middle" fill="#8CC9DD" font-size="18" font-family="Microsoft YaHei, Segoe UI, sans-serif">09时</text>
  <text x="455" y="962" text-anchor="middle" fill="#8CC9DD" font-size="18" font-family="Microsoft YaHei, Segoe UI, sans-serif">10时</text>
  <text x="580" y="962" text-anchor="middle" fill="#8CC9DD" font-size="18" font-family="Microsoft YaHei, Segoe UI, sans-serif">11时</text>
  <text x="705" y="962" text-anchor="middle" fill="#8CC9DD" font-size="18" font-family="Microsoft YaHei, Segoe UI, sans-serif">12时</text>
  <text x="830" y="962" text-anchor="middle" fill="#8CC9DD" font-size="18" font-family="Microsoft YaHei, Segoe UI, sans-serif">13时</text>
  <text x="955" y="962" text-anchor="middle" fill="#8CC9DD" font-size="18" font-family="Microsoft YaHei, Segoe UI, sans-serif">14时</text>
  <text x="1080" y="962" text-anchor="middle" fill="#8CC9DD" font-size="18" font-family="Microsoft YaHei, Segoe UI, sans-serif">15时</text>

  <rect x="1272" y="442" width="600" height="590" rx="32" fill="url(#card)" filter="url(#shadow)" stroke="#54DAE6" stroke-opacity="0.22"/>
  <text x="1308" y="490" fill="#D8F6FF" font-size="30" font-family="Microsoft YaHei, Segoe UI, sans-serif" font-weight="700">区域能耗概览</text>
  <text x="1308" y="526" fill="#8EC8DC" font-size="18" font-family="Microsoft YaHei, Segoe UI, sans-serif">按区域展示当日累计能耗</text>
  <rect x="1308" y="580" width="500" height="54" rx="27" fill="#10314A"/>
  <rect x="1308" y="580" width="400" height="54" rx="27" fill="#1AB5FF"/>
  <text x="1336" y="614" fill="#F7FDFF" font-size="21" font-family="Microsoft YaHei, Segoe UI, sans-serif">热处理区域</text>
  <text x="1768" y="614" text-anchor="end" fill="#F7FDFF" font-size="21" font-family="Microsoft YaHei, Segoe UI, sans-serif">3,420 kWh</text>
  <rect x="1308" y="658" width="500" height="54" rx="27" fill="#10314A"/>
  <rect x="1308" y="658" width="334" height="54" rx="27" fill="#26D89A"/>
  <text x="1336" y="692" fill="#F7FDFF" font-size="21" font-family="Microsoft YaHei, Segoe UI, sans-serif">装配区域</text>
  <text x="1768" y="692" text-anchor="end" fill="#F7FDFF" font-size="21" font-family="Microsoft YaHei, Segoe UI, sans-serif">2,860 kWh</text>
  <rect x="1308" y="736" width="500" height="54" rx="27" fill="#10314A"/>
  <rect x="1308" y="736" width="286" height="54" rx="27" fill="#5BBDFF"/>
  <text x="1336" y="770" fill="#F7FDFF" font-size="21" font-family="Microsoft YaHei, Segoe UI, sans-serif">物流区域</text>
  <text x="1768" y="770" text-anchor="end" fill="#F7FDFF" font-size="21" font-family="Microsoft YaHei, Segoe UI, sans-serif">2,210 kWh</text>
  <rect x="1308" y="838" width="500" height="142" rx="28" fill="#0E2A3F" stroke="#39BDED" stroke-opacity="0.24"/>
  <text x="1340" y="884" fill="#99D9E8" font-size="20" font-family="Microsoft YaHei, Segoe UI, sans-serif">展示定位</text>
  <text x="1340" y="926" fill="#F2FBFF" font-size="36" font-family="Microsoft YaHei, Segoe UI, sans-serif" font-weight="700">科技感 + 可信度</text>
  <text x="1340" y="958" fill="#85B8CA" font-size="18" font-family="Microsoft YaHei, Segoe UI, sans-serif">适用于客户参观、领导接待与工厂形象展示</text>
</svg>
